<mxfile host="app.diagrams.net" modified="2021-10-23T04:16:43.306Z" agent="5.0 (Windows NT 10.0; Win64; x64) AppleWebKit/537.36 (KHTML, like Gecko) Chrome/95.0.4638.54 Safari/537.36" etag="pRDRNwKM3XxGvSAeuLRi" version="15.5.8" type="github">
  <diagram id="C5RBs43oDa-KdzZeNtuy" name="Page-1">
    <mxGraphModel dx="1038" dy="583" grid="1" gridSize="10" guides="1" tooltips="1" connect="1" arrows="1" fold="1" page="1" pageScale="1" pageWidth="827" pageHeight="1169" math="0" shadow="0">
      <root>
        <mxCell id="WIyWlLk6GJQsqaUBKTNV-0" />
        <mxCell id="WIyWlLk6GJQsqaUBKTNV-1" parent="WIyWlLk6GJQsqaUBKTNV-0" />
        <mxCell id="0gje4Q6WLRT9-D1UKI0s-1" value="&lt;font face=&quot;Verdana&quot;&gt;START&lt;/font&gt;" style="ellipse;whiteSpace=wrap;html=1;" vertex="1" parent="WIyWlLk6GJQsqaUBKTNV-1">
          <mxGeometry x="354" y="20" width="146" height="60" as="geometry" />
        </mxCell>
        <mxCell id="0gje4Q6WLRT9-D1UKI0s-2" value="DECLARE&amp;nbsp; A , B AND C" style="rounded=0;whiteSpace=wrap;html=1;" vertex="1" parent="WIyWlLk6GJQsqaUBKTNV-1">
          <mxGeometry x="327" y="160" width="200" height="60" as="geometry" />
        </mxCell>
        <mxCell id="0gje4Q6WLRT9-D1UKI0s-3" value="" style="endArrow=classic;html=1;rounded=0;" edge="1" parent="WIyWlLk6GJQsqaUBKTNV-1">
          <mxGeometry width="50" height="50" relative="1" as="geometry">
            <mxPoint x="426.5" y="90" as="sourcePoint" />
            <mxPoint x="426.5" y="150" as="targetPoint" />
            <Array as="points" />
          </mxGeometry>
        </mxCell>
        <mxCell id="0gje4Q6WLRT9-D1UKI0s-4" value="" style="endArrow=classic;html=1;rounded=0;fontFamily=Verdana;" edge="1" parent="WIyWlLk6GJQsqaUBKTNV-1">
          <mxGeometry width="50" height="50" relative="1" as="geometry">
            <mxPoint x="426.5" y="230" as="sourcePoint" />
            <mxPoint x="427" y="290" as="targetPoint" />
          </mxGeometry>
        </mxCell>
        <mxCell id="0gje4Q6WLRT9-D1UKI0s-6" value="TAKE INPUT OF A AND B" style="shape=parallelogram;perimeter=parallelogramPerimeter;whiteSpace=wrap;html=1;fixedSize=1;fontFamily=Verdana;" vertex="1" parent="WIyWlLk6GJQsqaUBKTNV-1">
          <mxGeometry x="312" y="320" width="230" height="60" as="geometry" />
        </mxCell>
        <mxCell id="0gje4Q6WLRT9-D1UKI0s-7" value="" style="endArrow=classic;html=1;rounded=0;fontFamily=Verdana;" edge="1" parent="WIyWlLk6GJQsqaUBKTNV-1">
          <mxGeometry width="50" height="50" relative="1" as="geometry">
            <mxPoint x="426.5" y="390" as="sourcePoint" />
            <mxPoint x="427" y="450" as="targetPoint" />
            <Array as="points" />
          </mxGeometry>
        </mxCell>
        <mxCell id="0gje4Q6WLRT9-D1UKI0s-8" value="A=C&lt;br&gt;A=B&lt;br&gt;B=C" style="rounded=0;whiteSpace=wrap;html=1;fontFamily=Verdana;" vertex="1" parent="WIyWlLk6GJQsqaUBKTNV-1">
          <mxGeometry x="307" y="459" width="240" height="100" as="geometry" />
        </mxCell>
      </root>
    </mxGraphModel>
  </diagram>
</mxfile>
